<svg width="100" height="100" viewBox="0 0 100 100" xmlns="http://www.w3.org/2000/svg">
  <path d="M70 30C65 25 58 23 50 25C42 27 35 33 30 40C25 47 23 55 25 63C27 71 33 78 40 83C47 88 55 90 63 88C71 86 78 80 83 73C88 66 90 58 88 50C86 42 80 35 73 30C72 29 71 29 70 30Z" fill="#4A90E2"/>
  <path d="M40 40C38 38 35 38 33 40C31 42 31 45 33 47C35 49 38 49 40 47C42 45 42 42 40 40Z" fill="white"/>
  <path d="M60 50C58 48 55 48 53 50C51 52 51 55 53 57C55 59 58 59 60 57C62 55 62 52 60 50Z" fill="white"/>
  <path d="M50 70C48 68 45 68 43 70C41 72 41 75 43 77C45 79 48 79 50 77C52 75 52 72 50 70Z" fill="white"/>
</svg>